#tb 0: 1/25
0,          0,          0,        1,   152064, 0x68b189ef
0,          1,          1,        1,   152064, 0x5cc66551
0,          2,          2,        1,   152064, 0x88f0f64a
0,          3,          3,        1,   152064, 0x195780b0
0,          4,          4,        1,   152064, 0xeff7b652
0,          5,          5,        1,   152064, 0x6548a8e6
0,          6,          6,        1,   152064, 0x48667c23
0,          7,          7,        1,   152064, 0x7ca88bac
0,          8,          8,        1,   152064, 0xa3dc8026
0,          9,          9,        1,   152064, 0x51233915
0,         10,         10,        1,   152064, 0xf8ef4760
0,         11,         11,        1,   152064, 0x5d51fcd5
0,         12,         12,        1,   152064, 0x5c56ad61
0,         13,         13,        1,   152064, 0x96b7a223
0,         14,         14,        1,   152064, 0xb6ed8ddd
0,         15,         15,        1,   152064, 0xf7f80f05
0,         16,         16,        1,   152064, 0x695d4e18
0,         17,         17,        1,   152064, 0x9af438c8
0,         18,         18,        1,   152064, 0x3fcc6acc
0,         19,         19,        1,   152064, 0xd0ccdbff
0,         20,         20,        1,   152064, 0xe4f5f570
0,         21,         21,        1,   152064, 0x342c2412
0,         22,         22,        1,   152064, 0x45a51d59
0,         23,         23,        1,   152064, 0x58d768ef
0,         24,         24,        1,   152064, 0xebacf9d6
0,         25,         25,        1,   152064, 0x23ff9936
0,         26,         26,        1,   152064, 0x7e9196b5
0,         27,         27,        1,   152064, 0xe862d887
0,         28,         28,        1,   152064, 0xaf1aa455
0,         29,         29,        1,   152064, 0xcfca650e
0,         30,         30,        1,   152064, 0xe3506aca
0,         31,         31,        1,   152064, 0xd7f0c51e
0,         32,         32,        1,   152064, 0x1358fc8d
0,         33,         33,        1,   152064, 0xeeb77a30
0,         34,         34,        1,   152064, 0xa7c34378
0,         35,         35,        1,   152064, 0x8d6794fb
0,         36,         36,        1,   152064, 0x9c6a37ab
0,         37,         37,        1,   152064, 0xad9b01f8
0,         38,         38,        1,   152064, 0xa913594c
0,         39,         39,        1,   152064, 0xb6f34edd
0,         40,         40,        1,   152064, 0x4c4a5925
0,         41,         41,        1,   152064, 0x262a9e08
0,         42,         42,        1,   152064, 0x1fbdbfa9
0,         43,         43,        1,   152064, 0xc94620ec
0,         44,         44,        1,   152064, 0x33310471
0,         45,         45,        1,   152064, 0x02bd7e73
0,         46,         46,        1,   152064, 0x308c53ff
0,         47,         47,        1,   152064, 0x11b4c5c2
0,         48,         48,        1,   152064, 0x4fefb483
0,         49,         49,        1,   152064, 0x9edbd8ea
